<svg aria-hidden="true" style="position: absolute; width: 0; height: 0; overflow: hidden;" version="1.1" xmlns="http://www.w3.org/2000/svg" xmlns:xlink="http://www.w3.org/1999/xlink">
<defs>
<symbol id="icon-airplanemode_active" viewBox="0 0 24 24">
<path d="M21 15.984l-8.016-2.484v5.484l2.016 1.5v1.5l-3.516-0.984-3.469 0.984v-1.5l1.969-1.5v-5.484l-7.969 2.484v-1.969l7.969-5.016v-5.484q0-0.609 0.445-1.055t1.055-0.445 1.055 0.445 0.445 1.055v5.484l8.016 5.016v1.969z"></path>
</symbol>
<symbol id="icon-directions_bike" viewBox="0 0 24 24">
<path d="M18.984 20.484q1.453 0 2.484-1.008t1.031-2.461-1.031-2.484-2.484-1.031-2.461 1.031-1.008 2.484 1.008 2.461 2.461 1.008zM18.984 12q2.109 0 3.563 1.453t1.453 3.563-1.453 3.539-3.563 1.43-3.539-1.43-1.43-3.539 1.43-3.563 3.539-1.453zM10.781 10.5l2.203 2.297v6.188h-1.969v-4.969l-3.234-2.813q-0.563-0.375-0.563-1.406 0-0.844 0.563-1.406l2.813-2.813q0.375-0.563 1.406-0.563 0.891 0 1.594 0.563l1.922 1.922q1.5 1.5 3.563 1.5v2.016q-2.953 0-5.063-2.109l-0.797-0.797zM5.016 20.484q1.453 0 2.461-1.008t1.008-2.461-1.008-2.484-2.461-1.031-2.484 1.031-1.031 2.484 1.031 2.461 2.484 1.008zM5.016 12q2.109 0 3.539 1.453t1.43 3.563-1.43 3.539-3.539 1.43-3.563-1.43-1.453-3.539 1.453-3.563 3.563-1.453zM15.516 5.484q-0.797 0-1.406-0.586t-0.609-1.383 0.609-1.406 1.406-0.609 1.383 0.609 0.586 1.406-0.586 1.383-1.383 0.586z"></path>
</symbol>
<symbol id="icon-hotel" viewBox="0 0 24 24">
<path d="M18.984 6.984q1.641 0 2.836 1.195t1.195 2.836v9h-2.016v-3h-18v3h-2.016v-15h2.016v9h8.016v-7.031h7.969zM6.984 12.984q-1.219 0-2.109-0.891t-0.891-2.109 0.891-2.109 2.109-0.891 2.109 0.891 0.891 2.109-0.891 2.109-2.109 0.891z"></path>
</symbol>
<symbol id="icon-local_taxi" viewBox="0 0 24 24">
<path d="M5.016 11.016h13.969l-1.5-4.5h-10.969zM17.484 15.984q0.609 0 1.055-0.445t0.445-1.055-0.445-1.055-1.055-0.445-1.055 0.445-0.445 1.055 0.445 1.055 1.055 0.445zM6.516 15.984q0.609 0 1.055-0.445t0.445-1.055-0.445-1.055-1.055-0.445-1.055 0.445-0.445 1.055 0.445 1.055 1.055 0.445zM18.938 6l2.063 6v8.016q0 0.422-0.281 0.703t-0.703 0.281h-1.031q-0.422 0-0.703-0.281t-0.281-0.703v-1.031h-12v1.031q0 0.422-0.281 0.703t-0.703 0.281h-1.031q-0.422 0-0.703-0.281t-0.281-0.703v-8.016l2.063-6q0.281-0.984 1.453-0.984h2.484v-2.016h6v2.016h2.484q1.172 0 1.453 0.984z"></path>
</symbol>
<symbol id="icon-restaurant" viewBox="0 0 24 24">
<path d="M15.984 6q0-1.406 1.523-2.695t3.492-1.289v19.969h-2.484v-7.969h-2.531v-8.016zM11.016 9v-6.984h1.969v6.984q0 1.594-1.078 2.742t-2.672 1.242v9h-2.484v-9q-1.594-0.094-2.672-1.242t-1.078-2.742v-6.984h2.016v6.984h1.969v-6.984h2.016v6.984h2.016z"></path>
</symbol>
<symbol id="icon-location_city" viewBox="0 0 24 24">
<path d="M18.984 15v-2.016h-1.969v2.016h1.969zM18.984 18.984v-1.969h-1.969v1.969h1.969zM12.984 6.984v-1.969h-1.969v1.969h1.969zM12.984 11.016v-2.016h-1.969v2.016h1.969zM12.984 15v-2.016h-1.969v2.016h1.969zM12.984 18.984v-1.969h-1.969v1.969h1.969zM6.984 11.016v-2.016h-1.969v2.016h1.969zM6.984 15v-2.016h-1.969v2.016h1.969zM6.984 18.984v-1.969h-1.969v1.969h1.969zM15 11.016h6v9.984h-18v-14.016h6v-1.969l3-3 3 3v6z"></path>
</symbol>
<symbol id="icon-sports_tennis" viewBox="0 0 24 24">
<path d="M18 15q1.641 0 2.813 1.172t1.172 2.813-1.172 2.836-2.813 1.195-2.813-1.172-1.172-2.859q0-1.641 1.172-2.813t2.813-1.172zM18 17.016q-0.844 0-1.406 0.563-0.609 0.609-0.609 1.406t0.609 1.406 1.406 0.609q0.844 0 1.406-0.563 0.609-0.609 0.609-1.43t-0.609-1.43q-0.563-0.563-1.406-0.563zM10.313 11.672q1.172 1.172 3.164 0.867t3.586-1.898 1.898-3.586-0.867-3.164-3.141-0.844-3.563 1.922-1.922 3.563 0.844 3.141zM19.5 2.484q1.734 1.781 1.453 4.57t-2.484 4.992q-1.172 1.172-2.695 1.852t-2.789 0.68h-1.523t-0.797 0.023-0.867 0.117-0.773 0.234-0.82 0.398-0.703 0.586l-4.219 4.219-1.453-1.406 4.266-4.219q0.328-0.328 0.586-0.703t0.398-0.82 0.234-0.797 0.117-0.891 0.023-0.797v-1.523q0-1.219 0.68-2.742t1.852-2.695q2.203-2.203 4.992-2.531t4.523 1.453z"></path>
</symbol>
<symbol id="icon-dinner_dining" viewBox="0 0 24 24">
<path d="M3.984 16.5v-8.484h-0.984v-1.031h0.984v-0.984h-0.984v-0.984h0.984v-1.031h-0.984v-0.984h6q0.75 0.047 1.336 0.633t0.68 1.383h9.984v0.984h-9.984q-0.094 0.797-0.68 1.43t-1.336 0.586h-2.016v7.031q0.094 0 0.258-0.023t0.258-0.023q0.844 0 1.922 0.422 0.609-1.406 2.109-2.414t3-1.008q2.297 0 3.891 1.594t1.594 3.891q0 0.094-0.023 0.281t-0.023 0.234h-16.828q0.188-0.75 0.844-1.5zM6 15.234v-7.219h-0.984v7.688q0.703-0.375 0.984-0.469zM9 6.984v-0.984h-2.016v0.984h2.016zM9 3.984h-2.016v1.031h2.016v-1.031zM5.016 3.984v1.031h0.984v-1.031h-0.984zM5.016 6v0.984h0.984v-0.984h-0.984zM2.016 18.984h19.969l-1.969 2.016h-16.031z"></path>
</symbol>
<symbol id="icon-pool" viewBox="0 0 24 24">
<path d="M14.016 5.484q0-1.031 0.727-1.758t1.758-0.727 1.758 0.727 0.727 1.758-0.727 1.781-1.758 0.75-1.758-0.75-0.727-1.781zM8.672 12q-0.563 0-1.172-0.375-0.188-0.141-0.75-0.375l3.234-3.234-0.984-1.031q-1.5-1.5-3.984-1.5v-2.484q1.922 0 3.141 0.445t2.344 1.57l6.422 6.375q-0.281 0.188-0.422 0.234-0.609 0.375-1.172 0.375-0.516 0-1.125-0.375-1.031-0.609-2.203-0.609t-2.203 0.609q-0.609 0.375-1.125 0.375zM21.984 16.5q-1.078 0-2.156-0.656-0.516-0.328-1.172-0.328-0.609 0-1.125 0.328-1.078 0.656-2.203 0.656-1.078 0-2.156-0.656-0.516-0.328-1.172-0.328-0.609 0-1.125 0.328-1.078 0.656-2.203 0.656-1.078 0-2.156-0.656-0.516-0.328-1.172-0.328-0.609 0-1.125 0.328-1.078 0.656-2.203 0.656v-2.016q0.609 0 1.125-0.328 1.078-0.656 2.203-0.656 1.078 0 2.156 0.656 0.516 0.328 1.172 0.328 0.609 0 1.125-0.328 1.078-0.656 2.203-0.656 1.078 0 2.156 0.656 0.516 0.328 1.172 0.328 0.609 0 1.125-0.328 1.078-0.656 2.203-0.656 1.078 0 2.156 0.656 0.516 0.328 1.172 0.328v2.016zM21.984 21q-1.078 0-2.156-0.656-0.516-0.328-1.172-0.328-0.609 0-1.125 0.328-1.078 0.656-2.203 0.656-1.078 0-2.156-0.656-0.516-0.328-1.172-0.328-0.609 0-1.125 0.328-1.078 0.656-2.203 0.656t-2.203-0.656q-0.516-0.328-1.125-0.328-0.656 0-1.172 0.328-1.078 0.656-2.156 0.656v-2.016q0.609 0 1.125-0.328 1.078-0.656 2.203-0.656 1.078 0 2.156 0.656 0.516 0.328 1.172 0.328 0.609 0 1.125-0.328 1.078-0.656 2.203-0.656t2.203 0.656q0.516 0.328 1.125 0.328 0.656 0 1.172-0.328 1.078-0.656 2.156-0.656 1.125 0 2.203 0.656 0.516 0.328 1.125 0.328v2.016z"></path>
</symbol>
<symbol id="icon-facebook-with-circle" viewBox="0 0 20 20">
<path d="M10 0.4c-5.302 0-9.6 4.298-9.6 9.6s4.298 9.6 9.6 9.6 9.6-4.298 9.6-9.6-4.298-9.6-9.6-9.6zM12.274 7.034h-1.443c-0.171 0-0.361 0.225-0.361 0.524v1.042h1.805l-0.273 1.486h-1.532v4.461h-1.703v-4.461h-1.545v-1.486h1.545v-0.874c0-1.254 0.87-2.273 2.064-2.273h1.443v1.581z"></path>
</symbol>
<symbol id="icon-linkedin" viewBox="0 0 20 20">
<path d="M5 3c0 1.062-0.71 1.976-2.001 1.976-1.215 0-1.999-0.862-1.999-1.924 0-1.090 0.76-2.052 2-2.052s1.976 0.91 2 2zM1 19v-13h4v13h-4z"></path>
<path d="M7 10.444c0-1.545-0.051-2.836-0.102-3.951h3.594l0.178 1.723h0.076c0.506-0.811 1.746-2 3.822-2 2.532 0 4.432 1.695 4.432 5.342v7.442h-4v-6.861c0-1.594-0.607-2.81-2-2.81-1.062 0-1.594 0.86-1.873 1.569-0.102 0.254-0.127 0.608-0.127 0.963v7.139h-4v-8.556z"></path>
</symbol>
<symbol id="icon-twitter" viewBox="0 0 20 20">
<path d="M17.316 6.246c0.008 0.162 0.011 0.326 0.011 0.488 0 4.99-3.797 10.742-10.74 10.742-2.133 0-4.116-0.625-5.787-1.697 0.296 0.035 0.596 0.053 0.9 0.053 1.77 0 3.397-0.604 4.688-1.615-1.651-0.031-3.046-1.121-3.526-2.621 0.23 0.043 0.467 0.066 0.71 0.066 0.345 0 0.679-0.045 0.995-0.131-1.727-0.348-3.028-1.873-3.028-3.703 0-0.016 0-0.031 0-0.047 0.509 0.283 1.092 0.453 1.71 0.473-1.013-0.678-1.68-1.832-1.68-3.143 0-0.691 0.186-1.34 0.512-1.898 1.861 2.285 4.644 3.787 7.781 3.945-0.064-0.277-0.097-0.564-0.097-0.861 0-2.084 1.689-3.773 3.774-3.773 1.086 0 2.067 0.457 2.756 1.191 0.859-0.17 1.667-0.484 2.397-0.916-0.282 0.881-0.881 1.621-1.66 2.088 0.764-0.092 1.49-0.293 2.168-0.594-0.506 0.758-1.146 1.422-1.884 1.953z"></path>
</symbol>
<symbol id="icon-youtube" viewBox="0 0 20 20">
<path d="M10 2.3c-9.828 0-10 0.874-10 7.7s0.172 7.7 10 7.7 10-0.874 10-7.7-0.172-7.7-10-7.7zM13.205 10.334l-4.49 2.096c-0.393 0.182-0.715-0.022-0.715-0.456v-3.948c0-0.433 0.322-0.638 0.715-0.456l4.49 2.096c0.393 0.184 0.393 0.484 0 0.668z"></path>
</symbol>
</defs>
</svg>
